<mxfile host="45d536d4-f9e4-4b51-8a36-32364a215f8e" modified="2020-09-18T03:33:14.806Z" agent="5.0 (Windows NT 10.0; Win64; x64) AppleWebKit/537.36 (KHTML, like Gecko) Code/1.48.2 Chrome/78.0.3904.130 Electron/7.3.2 Safari/537.36" etag="qN-DxIQMpD9-DMfv97HH" version="13.1.3">
    <diagram id="6hGFLwfOUW9BJ-s0fimq" name="Page-1">
        <mxGraphModel dx="2158" dy="832" grid="1" gridSize="10" guides="1" tooltips="1" connect="1" arrows="1" fold="1" page="0" pageScale="1" pageWidth="827" pageHeight="1169" math="0" shadow="0">
            <root>
                <mxCell id="0"/>
                <mxCell id="1" parent="0"/>
                <mxCell id="16" value="" style="endArrow=none;dashed=1;html=1;strokeWidth=2;strokeColor=#8A8A8A;" edge="1" parent="1">
                    <mxGeometry width="50" height="50" relative="1" as="geometry">
                        <mxPoint x="-430" y="400" as="sourcePoint"/>
                        <mxPoint x="1050" y="400" as="targetPoint"/>
                    </mxGeometry>
                </mxCell>
                <mxCell id="66" value="" style="endArrow=none;dashed=1;html=1;strokeColor=#6E6E6E;strokeWidth=2;" edge="1" parent="1">
                    <mxGeometry width="50" height="50" relative="1" as="geometry">
                        <mxPoint x="524.5" y="400" as="sourcePoint"/>
                        <mxPoint x="524" y="-200" as="targetPoint"/>
                    </mxGeometry>
                </mxCell>
                <mxCell id="8" value="Back End" style="text;html=1;align=center;verticalAlign=middle;resizable=0;points=[];autosize=1;fontSize=18;" vertex="1" parent="1">
                    <mxGeometry x="80" y="415" width="90" height="30" as="geometry"/>
                </mxCell>
                <mxCell id="49" style="edgeStyle=orthogonalEdgeStyle;rounded=0;orthogonalLoop=1;jettySize=auto;html=1;exitX=0.5;exitY=1;exitDx=0;exitDy=0;entryX=0.5;entryY=0;entryDx=0;entryDy=0;strokeColor=#FFFFFF;strokeWidth=2;" edge="1" parent="1" source="13" target="34">
                    <mxGeometry relative="1" as="geometry"/>
                </mxCell>
                <mxCell id="50" style="edgeStyle=orthogonalEdgeStyle;rounded=0;orthogonalLoop=1;jettySize=auto;html=1;entryX=0.5;entryY=0;entryDx=0;entryDy=0;strokeColor=#FFFFFF;strokeWidth=2;exitX=0;exitY=0.5;exitDx=0;exitDy=0;" edge="1" parent="1" source="13" target="15">
                    <mxGeometry relative="1" as="geometry">
                        <mxPoint x="105" y="499.9999999999998" as="targetPoint"/>
                        <Array as="points">
                            <mxPoint x="40" y="-48"/>
                            <mxPoint x="40" y="510"/>
                        </Array>
                    </mxGeometry>
                </mxCell>
                <mxCell id="13" value="New Connection" style="rounded=0;whiteSpace=wrap;html=1;strokeColor=#BFBFBF;strokeWidth=2;fillColor=#363636;" vertex="1" parent="1">
                    <mxGeometry x="80" y="-81" width="140" height="65" as="geometry"/>
                </mxCell>
                <mxCell id="22" value="" style="edgeStyle=orthogonalEdgeStyle;rounded=0;orthogonalLoop=1;jettySize=auto;html=1;strokeWidth=2;" edge="1" parent="1" source="15" target="21">
                    <mxGeometry relative="1" as="geometry"/>
                </mxCell>
                <mxCell id="111" style="edgeStyle=orthogonalEdgeStyle;rounded=0;orthogonalLoop=1;jettySize=auto;html=1;entryX=0.002;entryY=0.604;entryDx=0;entryDy=0;entryPerimeter=0;dashed=1;strokeColor=#FFFFFF;strokeWidth=5;fontSize=18;dashPattern=1 1;endArrow=none;endFill=0;startArrow=classic;startFill=1;" edge="1" parent="1" source="15" target="99">
                    <mxGeometry relative="1" as="geometry">
                        <Array as="points">
                            <mxPoint x="200" y="543"/>
                            <mxPoint x="200" y="924"/>
                        </Array>
                    </mxGeometry>
                </mxCell>
                <mxCell id="15" value="Verify existing session" style="rounded=0;whiteSpace=wrap;html=1;strokeColor=#BFBFBF;strokeWidth=2;fillColor=#363636;" vertex="1" parent="1">
                    <mxGeometry x="-30" y="510" width="140" height="65" as="geometry"/>
                </mxCell>
                <mxCell id="25" value="" style="edgeStyle=orthogonalEdgeStyle;rounded=0;orthogonalLoop=1;jettySize=auto;html=1;strokeWidth=2;" edge="1" parent="1" source="21" target="24">
                    <mxGeometry relative="1" as="geometry"/>
                </mxCell>
                <mxCell id="112" style="edgeStyle=orthogonalEdgeStyle;rounded=0;orthogonalLoop=1;jettySize=auto;html=1;entryX=0;entryY=0.3;entryDx=0;entryDy=0;dashed=1;strokeColor=#FFFFFF;strokeWidth=5;fontSize=18;dashPattern=1 1;" edge="1" parent="1" source="21" target="99">
                    <mxGeometry relative="1" as="geometry">
                        <Array as="points">
                            <mxPoint x="280" y="642"/>
                            <mxPoint x="280" y="869"/>
                        </Array>
                    </mxGeometry>
                </mxCell>
                <mxCell id="21" value="Register user to room" style="rounded=0;whiteSpace=wrap;html=1;strokeColor=#BFBFBF;strokeWidth=2;fillColor=#363636;" vertex="1" parent="1">
                    <mxGeometry x="-30" y="609.17" width="140" height="65" as="geometry"/>
                </mxCell>
                <mxCell id="53" style="edgeStyle=orthogonalEdgeStyle;rounded=0;orthogonalLoop=1;jettySize=auto;html=1;entryX=0.5;entryY=0;entryDx=0;entryDy=0;strokeColor=#FFFFFF;strokeWidth=2;" edge="1" parent="1" source="24" target="52">
                    <mxGeometry relative="1" as="geometry"/>
                </mxCell>
                <mxCell id="85" style="edgeStyle=orthogonalEdgeStyle;rounded=0;orthogonalLoop=1;jettySize=auto;html=1;entryX=0.5;entryY=1;entryDx=0;entryDy=0;dashed=1;strokeColor=#FFFFFF;strokeWidth=2;fontSize=18;" edge="1" parent="1" source="24" target="76">
                    <mxGeometry relative="1" as="geometry"/>
                </mxCell>
                <mxCell id="24" value="Broadcast new connection" style="rounded=0;whiteSpace=wrap;html=1;strokeColor=#BFBFBF;strokeWidth=2;fillColor=#363636;" vertex="1" parent="1">
                    <mxGeometry x="-30" y="709.17" width="140" height="65" as="geometry"/>
                </mxCell>
                <mxCell id="86" style="edgeStyle=orthogonalEdgeStyle;rounded=0;orthogonalLoop=1;jettySize=auto;html=1;entryX=0;entryY=0.5;entryDx=0;entryDy=0;strokeColor=#FFFFFF;strokeWidth=2;fontSize=18;exitX=0;exitY=0.5;exitDx=0;exitDy=0;" edge="1" parent="1" source="34" target="84">
                    <mxGeometry relative="1" as="geometry">
                        <Array as="points">
                            <mxPoint x="-80" y="52"/>
                            <mxPoint x="-80" y="963"/>
                        </Array>
                    </mxGeometry>
                </mxCell>
                <mxCell id="98" style="edgeStyle=orthogonalEdgeStyle;rounded=0;orthogonalLoop=1;jettySize=auto;html=1;exitX=0.5;exitY=1;exitDx=0;exitDy=0;entryX=0.5;entryY=0;entryDx=0;entryDy=0;strokeColor=#FFFFFF;strokeWidth=2;fontSize=18;" edge="1" parent="1" source="34" target="97">
                    <mxGeometry relative="1" as="geometry"/>
                </mxCell>
                <mxCell id="34" value="New book" style="rounded=0;whiteSpace=wrap;html=1;strokeColor=#BFBFBF;strokeWidth=2;fillColor=#363636;" vertex="1" parent="1">
                    <mxGeometry x="80" y="19" width="140" height="65" as="geometry"/>
                </mxCell>
                <mxCell id="51" value="Room State" style="whiteSpace=wrap;html=1;aspect=fixed;strokeColor=#CCCCCC;strokeWidth=2;fillColor=#363636;" vertex="1" parent="1">
                    <mxGeometry x="420" y="-76" width="75" height="75" as="geometry"/>
                </mxCell>
                <mxCell id="79" style="edgeStyle=orthogonalEdgeStyle;rounded=0;orthogonalLoop=1;jettySize=auto;html=1;entryX=0;entryY=0.5;entryDx=0;entryDy=0;strokeColor=#FFFFFF;strokeWidth=2;fontSize=18;" edge="1" parent="1" source="52" target="78">
                    <mxGeometry relative="1" as="geometry">
                        <Array as="points">
                            <mxPoint x="240" y="842"/>
                            <mxPoint x="240" y="478"/>
                        </Array>
                    </mxGeometry>
                </mxCell>
                <mxCell id="52" value="Return current&lt;br&gt;room state" style="rounded=0;whiteSpace=wrap;html=1;strokeColor=#BFBFBF;strokeWidth=2;fillColor=#363636;" vertex="1" parent="1">
                    <mxGeometry x="-30" y="810" width="140" height="65" as="geometry"/>
                </mxCell>
                <mxCell id="59" value="Room State" style="whiteSpace=wrap;html=1;aspect=fixed;strokeColor=#CCCCCC;strokeWidth=2;fillColor=#363636;" vertex="1" parent="1">
                    <mxGeometry x="560" y="-76" width="75" height="75" as="geometry"/>
                </mxCell>
                <mxCell id="67" value="Current Client (Admin)" style="text;html=1;align=center;verticalAlign=middle;resizable=0;points=[];autosize=1;" vertex="1" parent="1">
                    <mxGeometry x="180" y="-150" width="130" height="20" as="geometry"/>
                </mxCell>
                <mxCell id="68" value="Other Clients" style="text;html=1;align=center;verticalAlign=middle;resizable=0;points=[];autosize=1;" vertex="1" parent="1">
                    <mxGeometry x="635" y="-150" width="90" height="20" as="geometry"/>
                </mxCell>
                <mxCell id="10" value="Front End" style="text;html=1;align=center;verticalAlign=middle;resizable=0;points=[];autosize=1;fontSize=18;" vertex="1" parent="1">
                    <mxGeometry x="-30" y="-190" width="90" height="30" as="geometry"/>
                </mxCell>
                <mxCell id="81" style="edgeStyle=orthogonalEdgeStyle;rounded=0;orthogonalLoop=1;jettySize=auto;html=1;exitX=0.5;exitY=0;exitDx=0;exitDy=0;entryX=0.5;entryY=1;entryDx=0;entryDy=0;strokeColor=#FFFFFF;strokeWidth=2;fontSize=18;" edge="1" parent="1" source="76" target="59">
                    <mxGeometry relative="1" as="geometry">
                        <Array as="points">
                            <mxPoint x="690" y="320"/>
                            <mxPoint x="598" y="320"/>
                        </Array>
                    </mxGeometry>
                </mxCell>
                <mxCell id="76" value="&lt;font style=&quot;font-size: 12px&quot;&gt;Update Room State&lt;br&gt;(Other clients)&lt;br&gt;&lt;/font&gt;" style="shape=process;whiteSpace=wrap;html=1;backgroundOutline=1;strokeColor=#CCCCCC;strokeWidth=2;fillColor=#363636;fontSize=18;" vertex="1" parent="1">
                    <mxGeometry x="620" y="445" width="140" height="65" as="geometry"/>
                </mxCell>
                <mxCell id="91" style="edgeStyle=orthogonalEdgeStyle;rounded=0;orthogonalLoop=1;jettySize=auto;html=1;exitX=0.5;exitY=0;exitDx=0;exitDy=0;strokeColor=#FFFFFF;strokeWidth=2;fontSize=18;entryX=0.25;entryY=1;entryDx=0;entryDy=0;" edge="1" parent="1" source="78" target="51">
                    <mxGeometry relative="1" as="geometry">
                        <mxPoint x="460" y="160" as="targetPoint"/>
                        <Array as="points">
                            <mxPoint x="439" y="445"/>
                        </Array>
                    </mxGeometry>
                </mxCell>
                <mxCell id="78" value="&lt;font style=&quot;font-size: 12px&quot;&gt;Update Room State&lt;br&gt;(Current Client)&lt;br&gt;&lt;/font&gt;" style="shape=process;whiteSpace=wrap;html=1;backgroundOutline=1;strokeColor=#CCCCCC;strokeWidth=2;fillColor=#363636;fontSize=18;" vertex="1" parent="1">
                    <mxGeometry x="370" y="445" width="140" height="65" as="geometry"/>
                </mxCell>
                <mxCell id="84" value="Change state&lt;br&gt;to &quot;first idea&quot;" style="rounded=0;whiteSpace=wrap;html=1;strokeColor=#BFBFBF;strokeWidth=2;fillColor=#363636;" vertex="1" parent="1">
                    <mxGeometry x="-30" y="930" width="140" height="65" as="geometry"/>
                </mxCell>
                <mxCell id="92" style="edgeStyle=orthogonalEdgeStyle;rounded=0;orthogonalLoop=1;jettySize=auto;html=1;entryX=0;entryY=0.5;entryDx=0;entryDy=0;strokeColor=#FFFFFF;strokeWidth=2;fontSize=18;dashed=1;exitX=1;exitY=0.5;exitDx=0;exitDy=0;" edge="1" parent="1" source="84" target="88">
                    <mxGeometry relative="1" as="geometry">
                        <Array as="points">
                            <mxPoint x="320" y="963"/>
                            <mxPoint x="320" y="585"/>
                        </Array>
                    </mxGeometry>
                </mxCell>
                <mxCell id="89" style="edgeStyle=orthogonalEdgeStyle;rounded=0;orthogonalLoop=1;jettySize=auto;html=1;strokeColor=#FFFFFF;strokeWidth=2;fontSize=18;entryX=0.25;entryY=1;entryDx=0;entryDy=0;" edge="1" parent="1" source="88" target="59">
                    <mxGeometry relative="1" as="geometry">
                        <mxPoint x="560" y="320" as="targetPoint"/>
                        <Array as="points">
                            <mxPoint x="560" y="420"/>
                            <mxPoint x="579" y="420"/>
                        </Array>
                    </mxGeometry>
                </mxCell>
                <mxCell id="90" style="edgeStyle=orthogonalEdgeStyle;rounded=0;orthogonalLoop=1;jettySize=auto;html=1;exitX=0.5;exitY=0;exitDx=0;exitDy=0;strokeColor=#FFFFFF;strokeWidth=2;fontSize=18;entryX=0.5;entryY=1;entryDx=0;entryDy=0;" edge="1" parent="1" source="88" target="51">
                    <mxGeometry relative="1" as="geometry">
                        <mxPoint x="460" y="160" as="targetPoint"/>
                        <Array as="points">
                            <mxPoint x="560" y="420"/>
                            <mxPoint x="458" y="420"/>
                        </Array>
                    </mxGeometry>
                </mxCell>
                <mxCell id="88" value="&lt;font style=&quot;font-size: 12px&quot;&gt;Update Room State&lt;br&gt;(All clients)&lt;br&gt;&lt;/font&gt;" style="shape=process;whiteSpace=wrap;html=1;backgroundOutline=1;strokeColor=#CCCCCC;strokeWidth=2;fillColor=#363636;fontSize=18;" vertex="1" parent="1">
                    <mxGeometry x="490" y="552" width="140" height="65" as="geometry"/>
                </mxCell>
                <mxCell id="101" style="edgeStyle=orthogonalEdgeStyle;rounded=0;orthogonalLoop=1;jettySize=auto;html=1;entryX=0;entryY=0.5;entryDx=0;entryDy=0;strokeColor=#FFFFFF;strokeWidth=2;fontSize=18;" edge="1" parent="1" source="97" target="100">
                    <mxGeometry relative="1" as="geometry">
                        <Array as="points">
                            <mxPoint x="-120" y="153"/>
                            <mxPoint x="-120" y="1103"/>
                        </Array>
                    </mxGeometry>
                </mxCell>
                <mxCell id="130" style="edgeStyle=orthogonalEdgeStyle;rounded=0;orthogonalLoop=1;jettySize=auto;html=1;entryX=0.5;entryY=0;entryDx=0;entryDy=0;startArrow=none;startFill=0;endArrow=classic;endFill=1;strokeColor=#FFFFFF;strokeWidth=2;fontSize=12;" edge="1" parent="1" source="97" target="128">
                    <mxGeometry relative="1" as="geometry"/>
                </mxCell>
                <mxCell id="97" value="Submit ideia" style="rounded=0;whiteSpace=wrap;html=1;strokeColor=#BFBFBF;strokeWidth=2;fillColor=#363636;" vertex="1" parent="1">
                    <mxGeometry x="80" y="120" width="140" height="65" as="geometry"/>
                </mxCell>
                <mxCell id="99" value="Redis" style="shape=cylinder;whiteSpace=wrap;html=1;boundedLbl=1;backgroundOutline=1;strokeColor=#CCCCCC;strokeWidth=2;fillColor=#363636;fontSize=18;" vertex="1" parent="1">
                    <mxGeometry x="480" y="815" width="135" height="180" as="geometry"/>
                </mxCell>
                <mxCell id="102" style="edgeStyle=orthogonalEdgeStyle;rounded=0;orthogonalLoop=1;jettySize=auto;html=1;strokeColor=#FFFFFF;strokeWidth=5;fontSize=18;dashed=1;dashPattern=1 1;exitX=0.5;exitY=0;exitDx=0;exitDy=0;" edge="1" parent="1" source="100" target="99">
                    <mxGeometry relative="1" as="geometry">
                        <Array as="points">
                            <mxPoint x="40" y="1040"/>
                            <mxPoint x="548" y="1040"/>
                        </Array>
                    </mxGeometry>
                </mxCell>
                <mxCell id="104" style="edgeStyle=orthogonalEdgeStyle;rounded=0;orthogonalLoop=1;jettySize=auto;html=1;strokeColor=#FFFFFF;strokeWidth=2;fontSize=18;" edge="1" parent="1" source="100" target="103">
                    <mxGeometry relative="1" as="geometry"/>
                </mxCell>
                <mxCell id="113" style="edgeStyle=orthogonalEdgeStyle;rounded=0;orthogonalLoop=1;jettySize=auto;html=1;entryX=0.25;entryY=1;entryDx=0;entryDy=0;dashed=1;startArrow=none;startFill=0;endArrow=classic;endFill=1;strokeColor=#FFFFFF;strokeWidth=2;fontSize=18;exitX=1;exitY=0.5;exitDx=0;exitDy=0;" edge="1" parent="1" source="100" target="105">
                    <mxGeometry relative="1" as="geometry">
                        <Array as="points">
                            <mxPoint x="970" y="1103"/>
                        </Array>
                    </mxGeometry>
                </mxCell>
                <mxCell id="100" value="Save idea" style="rounded=0;whiteSpace=wrap;html=1;strokeColor=#BFBFBF;strokeWidth=2;fillColor=#363636;" vertex="1" parent="1">
                    <mxGeometry x="-30" y="1070" width="140" height="65" as="geometry"/>
                </mxCell>
                <mxCell id="109" style="edgeStyle=orthogonalEdgeStyle;rounded=0;orthogonalLoop=1;jettySize=auto;html=1;entryX=0.5;entryY=1;entryDx=0;entryDy=0;strokeColor=#FFFFFF;strokeWidth=2;fontSize=18;dashed=1;" edge="1" parent="1" source="103" target="105">
                    <mxGeometry relative="1" as="geometry"/>
                </mxCell>
                <mxCell id="115" style="edgeStyle=orthogonalEdgeStyle;rounded=0;orthogonalLoop=1;jettySize=auto;html=1;startArrow=none;startFill=0;endArrow=classic;endFill=1;strokeColor=#FFFFFF;strokeWidth=2;fontSize=18;" edge="1" parent="1" source="103" target="114">
                    <mxGeometry relative="1" as="geometry"/>
                </mxCell>
                <mxCell id="103" value="Remove client from missing ideas" style="rounded=0;whiteSpace=wrap;html=1;strokeColor=#BFBFBF;strokeWidth=2;fillColor=#363636;" vertex="1" parent="1">
                    <mxGeometry x="-30" y="1170" width="140" height="65" as="geometry"/>
                </mxCell>
                <mxCell id="106" style="edgeStyle=orthogonalEdgeStyle;rounded=0;orthogonalLoop=1;jettySize=auto;html=1;exitX=0.5;exitY=0;exitDx=0;exitDy=0;entryX=1;entryY=0.5;entryDx=0;entryDy=0;strokeColor=#FFFFFF;strokeWidth=2;fontSize=18;" edge="1" parent="1" source="105" target="88">
                    <mxGeometry relative="1" as="geometry"/>
                </mxCell>
                <mxCell id="105" value="Game loop" style="rounded=0;whiteSpace=wrap;html=1;strokeColor=#CCCCCC;strokeWidth=2;fillColor=#363636;fontSize=18;" vertex="1" parent="1">
                    <mxGeometry x="920" y="749.5799999999999" width="200" height="185.83" as="geometry"/>
                </mxCell>
                <mxCell id="107" value="Each 1 second" style="text;html=1;align=center;verticalAlign=middle;resizable=0;points=[];autosize=1;fontSize=18;" vertex="1" parent="1">
                    <mxGeometry x="880" y="600" width="130" height="30" as="geometry"/>
                </mxCell>
                <mxCell id="120" value="" style="edgeStyle=orthogonalEdgeStyle;rounded=0;orthogonalLoop=1;jettySize=auto;html=1;startArrow=none;startFill=0;endArrow=classic;endFill=1;strokeColor=#FFFFFF;strokeWidth=2;fontSize=18;" edge="1" parent="1" source="114">
                    <mxGeometry relative="1" as="geometry">
                        <mxPoint x="170" y="1340" as="targetPoint"/>
                    </mxGeometry>
                </mxCell>
                <mxCell id="121" style="edgeStyle=orthogonalEdgeStyle;rounded=0;orthogonalLoop=1;jettySize=auto;html=1;exitX=0.5;exitY=1;exitDx=0;exitDy=0;startArrow=none;startFill=0;endArrow=classic;endFill=1;strokeColor=#FFFFFF;strokeWidth=2;fontSize=18;" edge="1" parent="1" source="114" target="118">
                    <mxGeometry relative="1" as="geometry"/>
                </mxCell>
                <mxCell id="114" value="&lt;font style=&quot;font-size: 12px&quot;&gt;Last ideia?&lt;/font&gt;" style="rhombus;whiteSpace=wrap;html=1;strokeColor=#CCCCCC;strokeWidth=2;fillColor=#363636;fontSize=18;" vertex="1" parent="1">
                    <mxGeometry x="-10" y="1290" width="100" height="100" as="geometry"/>
                </mxCell>
                <mxCell id="124" style="edgeStyle=orthogonalEdgeStyle;rounded=0;orthogonalLoop=1;jettySize=auto;html=1;entryX=0.5;entryY=1;entryDx=0;entryDy=0;startArrow=none;startFill=0;endArrow=classic;endFill=1;strokeColor=#FFFFFF;strokeWidth=2;fontSize=12;dashed=1;" edge="1" parent="1" source="118" target="78">
                    <mxGeometry relative="1" as="geometry"/>
                </mxCell>
                <mxCell id="126" style="edgeStyle=orthogonalEdgeStyle;rounded=0;orthogonalLoop=1;jettySize=auto;html=1;exitX=0.5;exitY=1;exitDx=0;exitDy=0;startArrow=none;startFill=0;endArrow=classic;endFill=1;strokeColor=#FFFFFF;strokeWidth=2;fontSize=12;" edge="1" parent="1" source="118" target="125">
                    <mxGeometry relative="1" as="geometry"/>
                </mxCell>
                <mxCell id="118" value="&lt;font style=&quot;font-size: 12px&quot;&gt;Random sort ideias to each player&lt;/font&gt;" style="rounded=0;whiteSpace=wrap;html=1;strokeColor=#CCCCCC;strokeWidth=2;fillColor=#363636;fontSize=18;" vertex="1" parent="1">
                    <mxGeometry x="-30" y="1450" width="140" height="65" as="geometry"/>
                </mxCell>
                <mxCell id="122" value="Yes" style="text;html=1;align=center;verticalAlign=middle;resizable=0;points=[];autosize=1;fontSize=12;" vertex="1" parent="1">
                    <mxGeometry x="40" y="1400" width="40" height="20" as="geometry"/>
                </mxCell>
                <mxCell id="123" value="No" style="text;html=1;align=center;verticalAlign=middle;resizable=0;points=[];autosize=1;fontSize=12;" vertex="1" parent="1">
                    <mxGeometry x="110" y="1310" width="30" height="20" as="geometry"/>
                </mxCell>
                <mxCell id="127" style="edgeStyle=orthogonalEdgeStyle;rounded=0;orthogonalLoop=1;jettySize=auto;html=1;startArrow=none;startFill=0;endArrow=classic;endFill=1;strokeColor=#FFFFFF;strokeWidth=2;fontSize=12;dashed=1;" edge="1" parent="1" source="125" target="88">
                    <mxGeometry relative="1" as="geometry">
                        <Array as="points">
                            <mxPoint x="650" y="1603"/>
                            <mxPoint x="650" y="680"/>
                            <mxPoint x="560" y="680"/>
                        </Array>
                    </mxGeometry>
                </mxCell>
                <mxCell id="125" value="&lt;font style=&quot;font-size: 12px&quot;&gt;Change state to &quot;drawing&quot;&lt;/font&gt;" style="rounded=0;whiteSpace=wrap;html=1;strokeColor=#CCCCCC;strokeWidth=2;fillColor=#363636;fontSize=18;" vertex="1" parent="1">
                    <mxGeometry x="-30" y="1570" width="140" height="65" as="geometry"/>
                </mxCell>
                <mxCell id="128" value="Submit draw" style="rounded=0;whiteSpace=wrap;html=1;strokeColor=#BFBFBF;strokeWidth=2;fillColor=#363636;" vertex="1" parent="1">
                    <mxGeometry x="80" y="220" width="140" height="65" as="geometry"/>
                </mxCell>
            </root>
        </mxGraphModel>
    </diagram>
</mxfile>